# xmcd CD database file
#
# Track frame offsets:
#	150
#	19410
#	32347
#
# Disc length: 636 seconds
#
# Revision: 0
# Processed by: cddbd v1.5.1PL2 Copyright (c) Steve Scherf et al.
# Submitted via: CDex 1.51
#
DISCID=19027a03
DTITLE=the Indigo - pain
DYEAR=2001
DGENRE=JPop
TTITLE0=pain
TTITLE1=それだけ
TTITLE2=if (farewell session)
EXTD=YEAR: 2001
EXTT0=
EXTT1=
EXTT2=
PLAYORDER=
